# xmcd
#
# Track frame offsets:
#	150
#	6841
#	23687
#	41664
#	60840
#	68755
#	78155
#	95582
#	117058
#	144116
#	156539
#	189610
#	211124
#	227256
#	240202
#	256631
#	275665
#	289405
#	304926
#	323325
#
# Disc length: 4709 seconds
#
# Revision: 2
# Processed by: cddbd v1.5.2PL0 Copyright (c) Steve Scherf et al.
# Submitted via: EZCDAudioConverter 7.0.6.1
#
DISCID=f9126314
DTITLE=Various Artist - Twin Peaks: Music From The Limited Event Series
DYEAR=2017
DGENRE=
TTITLE0=Angelo Badalamenti - Twin Peaks Main Theme [Edit]
TTITLE1=Chromatics - Shadow
TTITLE2=Cactus Blossoms - Mississippi
TTITLE3=Au Revoir Simone - Lark
TTITLE4=Blunted Beatz - I Am
TTITLE5=Paris Sisters - I Love How You Love Me
TTITLE6=Trouble - Snake Eyes
TTITLE7=Sharon Van Etten - Tarifa [Roadhouse Mix]
TTITLE8=Nine Inch Nails - She's Gone Away
TTITLE9=The Platters - My Prayer
TTITLE10=Rebekah Del Rio - No Stars
TTITLE11=Shawn Colvin - Viva Las Vegas
TTITLE12=James Marshall - Just You
TTITLE13=Booker T. and The MG's - Green Onions
TTITLE14=Lissie - Wild West [Roadhouse Mix]
TTITLE15=ZZ Top - Sharp Dressed Man
TTITLE16=The Veils - Axolotl [Roadhouse Mix]
TTITLE17=Eddie Vedder - Out Of Sand
TTITLE18=Otis Redding - I've Been Loving You Too Long [Live From Monterey Pop]
TTITLE19=Julee Cruise - The World Spins
EXTD=
EXTT0=
EXTT1=
EXTT2=
EXTT3=
EXTT4=
EXTT5=
EXTT6=
EXTT7=
EXTT8=
EXTT9=
EXTT10=
EXTT11=
EXTT12=
EXTT13=
EXTT14=
EXTT15=
EXTT16=
EXTT17=
EXTT18=
EXTT19=
PLAYORDER=
